Patient4_TMGait_0pt2_03_left_03_EMG.mot
version=1
nRows=30
nColumns=33
inDegrees=no
endheader
time	1LAddLong	2LGlutMax	3LGlutMed	4LIliopsoas	5LSemiMemb	6LBicFemLong	7LRecFem	8LVastMed	9LVastLat	10LGasMed	11LTibAnt	12lTibPost	13LPeroneusLong	14LSol	15LExtDigLong	16LFlexDigLong	17RAddLong	18RGlutMax	19RGlutMed	20RIliopsoas	21RSemiMemb	22RBicFemLong	23RRecFem	24RVastMed	25RVastLat	26RGasMed	27RTibAnt	28RTibPost	29RPeroneusLong	30RSol	31RExtDigLong	32RFlexDigLong
5.882	0.015564	0.076599	0.075684	0.003662	0.055695	-0.10376	0.021973	0.005798	-0.080566	-0.12909	-0.005341	0.007172	0.18326	0.04837	-0.007172	-0.000305	-0.00412	-0.046234	-0.10651	0.028839	-0.004578	-0.024414	-0.062561	0.009918	0.026093	-0.013885	-0.071411	0.008545	0.3064	0.22644	-0.016785	-0.009613
5.883	0.044708	0.11337	0.13672	0.00946	0.00351	-0.004578	-0.014496	0.003967	-0.078125	-0.12665	-0.001984	0.004578	0.025177	0.06134	-0.002594	0.002441	0.00351	-0.0737	-0.064392	0.19424	-0.033417	-0.015564	-0.065155	-0.030212	0.031586	-0.056763	-0.029449	0.000763	0.1535	0.75104	-0.00885	-0.014648
5.884	0.029602	0.15457	0.16159	0.014801	-0.004883	0.12131	-0.02182	-0.00473	-0.046539	0.088501	0.004578	0.075989	-0.16235	0.001373	-0.014496	-0.006256	0.00824	-0.039063	-0.062408	0.18814	-0.042114	0.014343	-0.068054	-0.053711	0.033569	-0.0354	-0.034637	0.013733	0.11154	0.43152	-0.007477	-0.012665
5.885	0.026093	0.16586	0.077667	-0.011597	-0.011902	0.10513	-0.034485	-0.004883	-0.000458	0.26764	0.010834	0.11246	0.021973	-0.13687	-0.017853	-0.005951	-0.000916	-0.003052	-0.17166	0.008392	-0.055389	0.059509	-0.073242	-0.057983	0.031281	-0.024719	-0.055237	0.027466	0.056458	0.13565	-0.009308	-0.009308
5.886	0.045624	0.17166	0.018005	0.010376	0.052795	-0.019379	-0.020294	-0.005798	0.053406	0.24078	0.008545	-0.065155	-0.16113	-0.33905	0.007019	-0.009003	0.008087	-0.081329	-0.10178	-0.121	-0.024414	0.12405	-0.11917	0.005341	0.052185	-0.010986	-0.011902	0.005646	-0.092316	-0.023956	-0.003052	-0.006714
5.887	0.031281	0.10803	-0.018311	0.010529	0.042114	-0.048981	0.057068	-0.007782	0.12436	0.10925	0.00946	0.026245	0.007324	-0.42923	0.005493	-0.005035	0.000458	-0.037994	-0.11063	-0.13184	0.006866	0.10407	-0.14191	0.032196	0.041504	-0.005493	0.079346	0.00061	-0.13641	-0.21393	-0.00473	-0.00885
5.888	0.013428	0.03067	0.008087	0.001526	0.016022	0.059509	0.089874	0.003357	0.14542	-0.064545	-0.02121	0.011597	0.70923	-0.22736	-0.010834	-0.005341	0.005188	0.015869	-0.1683	-0.032654	0.010223	0.057068	-0.084534	0.034485	0.036469	-0.002136	0.14526	-0.002441	-0.14664	-0.36087	-0.010223	-0.011292
5.889	0.006409	-0.052032	-0.033569	-0.009155	0.026093	0.099945	0.10162	0.007477	0.15686	-0.07843	-0.010376	0.005646	0.089417	-0.19775	-0.028534	-0.00473	0.005188	-0.023346	-0.23636	0.13138	0.020142	0.052795	-0.088348	0.005646	0.014648	0	0.10193	-0.002899	-0.09552	-0.26184	-0.010834	-0.00885
5.89	-0.007324	-0.057373	-0.023041	0.002899	0.021362	0.10895	0.11658	0.00412	0.14908	-0.070496	-0.005646	0.009003	0.10559	-0.039063	-0.010529	-0.005188	0.004883	-0.009766	-0.289	0.16083	0.00946	0.033112	-0.072937	0.001221	0.006104	0.000763	0.003204	-0.005493	-0.036011	-0.062103	-0.000305	-0.012665
5.891	0.010986	-0.029907	-0.036011	0.017548	-0.021057	0.12589	0.12787	0.00885	0.081177	0.18097	0.010986	0.005035	-0.034637	0.26916	0.055237	-0.005646	0.006256	-0.019989	-0.23331	0.088806	0.00061	0.008392	-0.076599	-0.033112	0.030823	0.010529	-0.084839	-0.009003	0.112	-0.048523	0.001526	-0.010223
5.892	0.00885	0.059967	-0.023804	0.018921	-0.022736	0.16983	0.11139	0.006866	0.041504	0.063629	0.013275	0.001526	-0.032196	0.28595	0.022888	-0.010223	0.011139	0.002594	-0.15732	0.031738	-0.043793	-0.029602	-0.067291	0.001831	0.020447	0.003815	-0.030975	-0.010529	0.20248	-0.10941	-0.005951	0
5.893	0.016174	0.089417	-0.050812	0.007629	-0.008392	0.14938	0.12421	0.01297	0.001373	-0.079498	0.004578	-0.004578	-0.079193	0.10269	-0.015106	-0.010681	0.015106	0.013123	-0.004578	-0.001831	-0.11536	-0.056	-0.061188	-0.039673	0.008087	-0.001526	0.034027	-0.009155	0.068054	-0.1915	-0.008392	-0.00885
5.894	-0.006104	0.045319	-0.071564	0.002289	-0.000916	0.11032	0.11917	0.005646	0.076904	-0.00412	-0.007629	-0.006409	-0.15228	-0.13519	-0.028992	-0.01358	0.025635	-0.044403	0.051727	0.006256	-0.078278	-0.012207	-0.044861	-0.000458	0.0177	-0.000153	-0.014343	-0.012054	0.038757	-0.32227	0.004272	-0.005188
5.895	-0.010223	0.077972	-0.13809	-0.007629	-0.015869	0.016785	0.15533	0.003662	0.057526	0.079193	-0.011749	0.005798	0.022125	-0.04837	-0.055847	-0.020752	0.02594	0.002136	-0.080109	-0.005646	0.022888	-0.071259	-0.063171	0.001984	0.008087	-0.001221	-0.054932	-0.007935	-0.055389	-0.25665	-0.001984	0.001221
5.896	-0.019531	0.14221	-0.13123	0.015106	-0.03891	-0.016327	0.15472	0.006104	0.025787	0.17624	0.00061	0.006256	0.038757	0.052338	-0.077209	-0.005798	0.023651	0.025482	-0.13397	-0.031433	0.11902	-0.14038	-0.066681	-0.023041	0.007782	0.002594	-0.050812	-0.014343	-0.077057	-0.066833	-0.002899	-0.000916
5.897	-0.025787	0.13245	-0.006561	0.007935	-0.049744	0.005188	0.15472	0.00351	0.020905	0.042725	-0.000153	0.007782	0.058136	0.048676	-0.048676	-0.002594	0.020294	-0.023651	-0.051575	-0.042572	0.10178	-0.13062	-0.058441	-0.066376	0.000305	0.003815	-0.027771	-0.007477	-0.14328	0.009003	-0.00473	-0.010834
5.898	-0.03006	0.11841	0.15396	0.021973	-0.056	0.049896	0.18555	0.002594	-0.07309	-0.090637	-0.000916	0.011292	0.051422	0.075684	-0.004272	-0.005646	0.026703	-0.016174	-0.031433	-0.060577	0.043335	-0.044098	-0.058899	-0.046692	-0.006561	0.001373	-0.029602	-0.005646	-0.13382	-0.05722	0.000763	-0.009003
5.899	-0.020447	0.036316	0.037079	0.00946	-0.019531	0.076904	0.2034	0.003662	-0.11658	-0.04425	-0.007629	0.01709	0.053864	0.059967	0.007782	-0.003052	0.004425	-0.009918	-0.27268	-0.024261	0.11383	0.024872	-0.050964	-0.020294	0.003662	-0.000916	-0.021057	-0.007782	-0.12711	-0.10635	-0.002747	-0.006409
5.9	-0.032196	0.031586	0.007477	0.010376	0.010376	0.069122	0.1918	0.010376	-0.13031	-0.003967	0.001526	0.021973	0.009308	0.036774	-0.002441	0.00473	0.010071	0.022278	-0.19821	-0.024109	0.12589	-0.044861	-0.050507	-0.050354	-0.010834	-0.003357	-0.006866	-0.015259	-0.22903	-0.09491	-0.005493	-0.007477
5.901	-0.015564	0.042725	0.103	-0.00351	-0.020752	0.014191	0.15289	0.019226	-0.078125	-0.016632	-0.001373	0.015106	0.017853	0.040283	0.000305	-0.016174	0.033264	0.023651	0.10819	-0.087738	0.022583	-0.048065	-0.051575	-0.046539	-0.010376	-0.001831	-0.005493	-0.004578	-0.38483	-0.1062	-0.00412	-0.00885
5.902	-0.014496	0.054474	0.052795	-0.006561	-0.088806	-0.088654	0.11459	0.024719	-0.024109	-0.020142	0.002136	0.014648	-0.016785	0.059052	-0.006256	-0.012207	0.015717	-0.005188	-0.30777	-0.20721	-0.16098	0.019836	-0.1091	-0.021515	-0.029907	0	0.022583	-0.003357	-0.11185	-0.080719	-0.00412	-0.009308
5.903	0.015411	0.058136	0.055237	0.000916	-0.083618	-0.06012	0.08316	0.006256	0.009918	0.00061	0.004883	0.009003	-0.037842	0.000916	-0.013733	-0.011749	0.002899	0.027618	-0.40436	-0.16541	-0.094452	0.076141	-0.13992	-0.015869	-0.005493	-0.012054	0.054016	-0.005035	0.27115	-0.076294	0	-0.017548
5.904	0.024719	0.06546	-0.006561	0.012054	-0.041046	-0.049591	0.10117	0.002441	0.035095	0.009308	0.001373	0.011597	-0.030212	0.050507	-0.001373	-0.007629	-0.006866	0.010681	-0.19211	-0.070801	-0.082855	0.010681	-0.17303	0.032043	0.081787	-0.007019	0.034485	-0.007629	0.54825	-0.053253	0.000763	-0.018005
5.905	0.015259	0.070648	-0.026093	0.00946	-0.023956	-0.11749	0.13123	0.003052	0.036774	0.023651	0.005798	0.00824	0.000916	0.055847	-0.007629	-0.012665	-0.00885	-0.031891	0.24811	0.046387	-0.1294	-0.060883	-0.1535	-0.005798	0.076447	-0.004272	0.01236	-0.003204	0.000763	-0.079956	-0.003662	-0.005951
5.906	0.032654	0.045013	-0.00351	-0.002441	-0.063171	-0.1442	0.16449	-0.010834	0.020294	0.024567	0.003357	0.012665	0.29572	0.059662	0.016174	-0.001526	-0.027771	-0.04303	0.15366	0.168	-0.021362	0.006714	-0.077209	0.044403	0.042419	-0.00473	-0.014343	-0.002136	-0.018768	0.009613	-0.002441	-0.02655
5.907	0.01297	0.068817	-0.03479	-0.002747	-0.096588	-0.042877	0.18982	-0.00885	0.018768	0.019073	-0.000458	0.015869	0.22476	0.028839	0.029297	-0.00824	-0.007935	-0.06134	-0.027771	0.11505	0.14862	0.00885	-0.11948	0.072784	0.034637	-0.00824	-0.020142	-0.001984	0.12039	0.083923	0.005646	-0.01709
5.908	-0.004578	0.066833	0.010376	0.00412	-0.10529	0.20599	0.20874	-0.001526	-0.00885	-0.000763	-0.010529	0.024109	0.92865	0.03952	0.014648	0.005646	0.018768	-0.029755	-0.15579	0.032501	0.1889	-0.028381	-0.057526	0.014648	0.036621	-0.00351	0.009155	-0.007324	-0.20798	0.058441	-0.003967	-0.025024
5.909	-0.004272	0.045624	0.068359	0.00412	-0.031433	0.27771	0.2063	-0.003815	-0.005798	-0.063477	-0.018158	0.016785	0.99533	0.081635	0.051727	0.001068	0.013428	-0.087891	-0.16647	0.084991	0.23148	0.058136	-0.10391	0.001068	0.017242	-0.010529	0.040894	-0.005493	-0.79025	-0.005798	-0.004883	-0.016327
5.91	-0.003662	0.028229	0.10223	0.028381	0.10346	0.31509	0.20737	-0.00946	-0.030823	-0.038757	0.000458	0.014496	-0.23117	0.047913	0.028687	-0.000763	0.009766	-0.024872	-0.2301	0.19379	-0.064545	0.15137	-0.090332	0.022278	0.003052	0.009766	-0.009613	-0.002899	-0.44571	-0.11246	-0.002441	-0.011444
5.911	0.010681	0.014648	0.090027	0.007629	0.096283	0.16266	0.17624	0.007019	-0.042572	-0.003052	0.042114	0.014801	-0.56961	-0.019379	-0.077209	-0.011597	-0.016174	-0.021667	-0.1738	0.13321	-0.15823	0.13001	-0.072937	0.015106	0.02243	0.010071	-0.066376	-0.00412	0.616	-0.11215	-0.00412	-0.00412
